# Blender 4.0.2
# www.blender.org
mtllib CornellBox.mtl
o backWall
v 1.000000 2.493773 0.684704
v -1.000000 2.493773 0.684704
v -1.000000 0.493794 0.675536
v 1.000000 0.493794 0.675536
vn -0.0000 -0.0046 1.0000
s 0
usemtl backWall
f 1//1 2//1 3//1
f 3//1 4//1 1//1
o ceiling
v 1.000000 2.493773 0.684704
v 1.000000 2.484606 2.684683
v -1.000000 2.484606 2.684683
v -1.000000 2.493773 0.684704
vn -0.0000 -1.0000 -0.0046
s 0
usemtl ceiling
f 5//2 6//2 7//2
f 7//2 8//2 5//2
o floor
v 1.000000 0.493794 0.675536
v -1.000000 0.493794 0.675536
v -1.000000 0.484627 2.675515
v 1.000000 0.484627 2.675515
vn -0.0000 1.0000 0.0046
s 0
usemtl floor
f 9//3 10//3 11//3
f 11//3 12//3 9//3
o leftWall
v -1.000000 0.484627 2.675515
v -1.000000 0.493794 0.675536
v -1.000000 2.493773 0.684704
v -1.000000 2.484606 2.684683
vn 1.0000 0.0050 -0.0000
vn 0.9998 0.0151 0.0100
s 0
usemtl leftWall
f 13//4 14//5 15//4
f 15//4 16//4 13//4
o light
v 0.250000 2.413695 1.489627
v 0.250000 2.411954 1.869622
v -0.250000 2.411954 1.869622
v -0.250000 2.413695 1.489627
vn -0.0000 -1.0000 -0.0046
s 0
usemtl light
f 17//6 18//6 19//6
f 19//6 20//6 17//6
o rightWall
v 1.000000 2.484606 2.684683
v 1.000000 2.493773 0.684704
v 1.000000 0.493794 0.675536
v 1.000000 0.484627 2.675515
vn -1.0000 -0.0000 -0.0000
s 0
usemtl rightWall
f 21//7 22//7 23//7
f 23//7 24//7 21//7
o shortBox
v 0.130000 1.089090 1.703276
v -0.050000 1.086477 2.273270
v 0.530000 1.085652 2.453268
v 0.700000 1.088311 1.873274
v 0.530000 0.485658 2.450518
v 0.700000 0.488317 1.870524
v 0.130000 0.489096 1.700526
v -0.050000 0.486484 2.270520
vn -0.0000 1.0000 0.0046
vn 0.9596 -0.0013 0.2813
vn 0.2858 0.0044 -0.9583
vn -0.9536 0.0014 -0.3011
vn -0.2964 -0.0044 0.9551
s 0
usemtl shortBox
f 25//8 26//8 27//8
f 27//8 28//8 25//8
f 28//9 27//9 29//9
f 29//9 30//9 28//9
f 25//10 28//10 30//10
f 30//10 31//10 25//10
f 26//11 25//11 31//11
f 31//11 32//11 26//11
f 27//12 26//12 32//12
f 32//12 29//12 27//12
o tallBox
v -0.140000 1.692155 1.036033
v -0.710000 1.691329 1.216031
v -0.530000 1.688671 1.796025
v 0.040000 1.689496 1.616027
v -0.710000 0.491342 1.210531
v -0.530000 0.488684 1.790525
v -0.140000 0.492167 1.030533
v 0.040000 0.489509 1.610527
vn -0.0000 1.0000 0.0046
vn -0.9551 -0.0014 0.2964
vn -0.3011 0.0044 -0.9536
vn 0.9551 0.0014 -0.2964
vn 0.3011 -0.0044 0.9536
s 0
usemtl tallBox
f 33//13 34//13 35//13
f 35//13 36//13 33//13
f 34//14 37//14 38//14
f 38//14 35//14 34//14
f 33//15 39//15 37//15
f 37//15 34//15 33//15
f 36//16 40//16 39//16
f 39//16 33//16 36//16
f 36//17 35//17 38//17
f 38//17 40//17 36//17
