# Blender 4.0.2
# www.blender.org
mtllib face.mtl
o obj1
v -0.218001 2.695690 -0.758487
v 0.247223 3.483968 -0.935739
v -0.218001 2.695690 -0.935739
v 0.175841 3.766565 -0.935739
v 0.247223 3.483968 -0.758487
v 0.175841 3.766565 -0.570307
v 0.557113 4.796582 -0.935739
v 0.557113 4.750206 -0.435629
v -0.082299 2.453587 -0.935739
v 0.156842 2.381633 -0.935739
v 0.121189 2.393015 -0.781992
v 0.277148 2.572067 -0.574264
v 0.413335 3.346081 -0.600233
v 0.937613 3.271616 0.278737
v 0.628424 3.656253 0.061035
v 0.736616 2.688156 0.128651
v 0.041042 2.175698 -0.935739
v 0.128109 2.043643 -0.721460
v 0.128109 2.043643 -0.935739
v 0.048947 1.898039 -0.749324
v 0.048947 1.898039 -0.935739
v 0.387039 1.939702 -0.429114
v 0.027727 2.230242 -0.729741
v 0.573724 2.028351 -0.134094
v 0.204692 1.719965 -0.766204
v 0.204692 1.719965 -0.935739
v 0.169567 1.306466 -0.935739
v 0.169567 1.306466 -0.761865
v 0.416178 1.282576 -0.563987
v 0.944152 4.451414 0.185634
v 1.914599 5.297884 -0.935739
v 1.914599 5.233765 -0.249640
v 2.027070 3.258178 0.415045
v 2.049799 4.858455 0.319859
v 0.746752 1.316809 -0.403813
v 1.236534 1.688962 -0.068390
v 1.493465 2.170730 0.215768
v 0.343709 1.196862 -0.801012
v 0.634682 1.169412 -0.935739
v 0.343709 1.196862 -0.935739
v 0.640697 1.183619 -0.750920
v 3.323969 4.584980 -0.547546
v 3.317317 4.288445 -0.237741
v 3.432387 3.300843 -0.237741
v 3.029537 2.570732 -0.237741
v 1.895343 2.059424 -0.009776
v 1.751613 1.740297 -0.108318
v 1.434006 1.399318 -0.446028
v 1.301622 1.310813 -0.935739
v 1.301622 1.315027 -0.642093
v 3.672687 3.333187 -0.935739
v 3.325791 2.394128 -0.935739
v 3.410933 1.522504 -0.155622
v 3.742534 1.339257 -0.935739
v 1.753250 0.235732 -0.409877
v 1.630507 0.052174 -0.935739
v 1.636727 0.052174 -0.615081
v 2.107348 0.561807 -0.035562
v 2.273589 1.009579 0.076256
v 2.845206 1.406060 -0.065778
v 2.462729 2.460931 -0.152050
v -0.218001 2.695690 -1.112990
v 0.247223 3.483968 -1.112990
v 0.175841 3.766565 -1.301170
v 0.557113 4.750206 -1.435848
v 0.121189 2.393015 -1.089486
v 0.413335 3.346081 -1.271244
v 0.277148 2.572067 -1.297213
v 0.628424 3.656253 -1.932513
v 0.937613 3.271616 -2.150214
v 0.736616 2.688156 -2.000128
v 0.027727 2.230242 -1.141737
v 0.128109 2.043643 -1.150017
v 0.048947 1.898039 -1.122154
v 0.387039 1.939702 -1.442364
v 0.573724 2.028351 -1.737383
v 0.204692 1.719965 -1.105273
v 0.169567 1.306466 -1.109612
v 0.416178 1.282576 -1.307490
v 1.914599 5.233765 -1.621838
v 0.944152 4.451414 -2.057112
v 2.049799 4.858455 -2.191338
v 2.027070 3.258178 -2.286522
v 0.746752 1.316809 -1.467664
v 1.236534 1.688962 -1.803087
v 1.493465 2.170730 -2.087246
v 0.343709 1.196862 -1.070465
v 0.640697 1.183619 -1.120558
v 3.323969 4.584980 -1.323932
v 3.383203 4.654444 -0.935739
v 3.317317 4.288445 -1.633736
v 3.432387 3.300843 -1.633736
v 3.029537 2.570732 -1.633736
v 2.462729 2.460931 -1.719428
v 1.895343 2.059424 -1.861701
v 1.751613 1.740297 -1.763159
v 1.434006 1.399318 -1.425449
v 1.301622 1.315027 -1.229384
v 3.410933 1.522504 -1.715856
v 1.753250 0.235732 -1.461601
v 2.107348 0.561807 -1.835915
v 2.273589 1.009579 -1.947733
v 2.845206 1.406060 -1.805700
v 1.636727 0.052174 -1.256397
vn -0.8595 -0.0615 0.5075
vn -0.9898 0.1424 -0.0000
vn -0.9999 0.0112 -0.0000
vn -0.9986 0.0535 -0.0000
vn -0.9465 -0.0231 0.3218
vn -0.9500 -0.0323 0.3105
vn -0.6918 0.7221 -0.0000
vn -0.6931 0.6377 0.3363
vn -0.9999 0.0111 -0.0000
vn -0.6301 -0.7765 -0.0000
vn -0.8595 -0.0614 0.5075
vn -0.9502 -0.3117 -0.0000
vn -0.9507 -0.0882 0.2973
vn -0.6783 0.0159 0.7346
vn -0.7537 -0.0777 0.6526
vn -0.6783 0.0160 0.7346
vn -0.7537 -0.0777 0.6527
vn -0.4572 -0.0367 0.8886
vn -0.7454 -0.0822 0.6615
vn -0.5976 -0.0618 0.7994
vn -0.9942 -0.1078 -0.0000
vn -0.9502 -0.3116 -0.0000
vn -0.9082 -0.0851 0.4097
vn -0.9942 -0.1079 -0.0000
vn -0.9991 -0.0424 -0.0000
vn -0.9304 -0.1307 0.3425
vn -0.9991 -0.0425 -0.0000
vn -0.9939 -0.1101 -0.0000
vn -0.9083 -0.0850 0.4097
vn -0.7854 -0.1164 0.6080
vn -0.9505 0.0498 0.3068
vn -0.9304 -0.1306 0.3426
vn -0.9082 -0.0850 0.4097
vn -0.6020 -0.2206 0.7674
vn -0.8725 -0.3150 0.3736
vn -0.8951 -0.4459 -0.0000
vn -0.8724 -0.3150 0.3736
vn -0.8394 -0.3930 0.3753
vn -0.4525 -0.6173 0.6435
vn -0.4526 -0.6173 0.6436
vn -0.6931 0.6377 0.3362
vn -0.4520 0.3717 0.8109
vn 0.0432 0.9991 -0.0000
vn 0.0242 0.9421 0.3343
vn 0.0242 0.9421 0.3344
vn 0.1766 -0.1053 0.9786
vn 0.1280 0.5348 0.8352
vn -0.4520 0.3716 0.8109
vn -0.1122 -0.7448 0.6578
vn -0.0592 -0.5776 0.8141
vn 0.0353 -0.3479 0.9369
vn -0.0591 -0.5776 0.8142
vn -0.4572 -0.0368 0.8886
vn -0.3078 -0.9334 0.1844
vn -0.8395 -0.3930 0.3754
vn -0.4526 -0.6173 0.6435
vn -0.8394 -0.3930 0.3754
vn -0.3078 -0.9334 0.1845
vn 0.0673 -0.9977 -0.0000
vn -0.3221 -0.9467 -0.0000
vn 0.0390 -0.9765 0.2121
vn 0.7354 0.5955 0.3233
vn 0.0242 0.9422 0.3343
vn 0.1281 0.5348 0.8352
vn 0.7354 0.5956 0.3233
vn 0.1766 -0.1054 0.9786
vn 0.7295 0.2730 0.6272
vn 0.7553 -0.1249 0.6434
vn 0.5770 -0.1286 0.8065
vn 0.2312 -0.2063 0.9508
vn 0.1765 -0.1054 0.9786
vn -0.2026 -0.3601 0.9106
vn -0.3527 -0.5758 0.7376
vn -0.0592 -0.5777 0.8141
vn -0.1122 -0.7448 0.6577
vn -0.5335 -0.8458 -0.0000
vn -0.4388 -0.8277 0.3498
vn -0.1121 -0.7448 0.6578
vn 0.9962 -0.0876 -0.0000
vn 0.9995 0.0313 -0.0000
vn 0.5771 -0.1286 0.8065
vn 0.6518 0.2938 0.6991
vn 0.9301 0.3674 -0.0000
vn -0.7276 -0.1784 0.6624
vn -0.4388 -0.8277 0.3497
vn -0.9668 -0.2556 -0.0000
vn -0.9312 -0.2412 0.2734
vn -0.5888 -0.1313 0.7975
vn -0.2027 -0.3600 0.9106
vn -0.2024 -0.3599 0.9108
vn -0.2290 0.0009 0.9734
vn 0.2311 -0.2063 0.9508
vn 0.1399 0.1299 0.9816
vn 0.2544 -0.1872 0.9488
vn 0.6518 0.2939 0.6991
vn -0.8595 -0.0615 -0.5075
vn -0.9465 -0.0231 -0.3218
vn -0.9500 -0.0323 -0.3105
vn -0.6931 0.6377 -0.3363
vn -0.8595 -0.0614 -0.5075
vn -0.9502 -0.3116 -0.0023
vn -0.9507 -0.0882 -0.2973
vn -0.8594 -0.0614 -0.5075
vn -0.7537 -0.0777 -0.6526
vn -0.6783 0.0160 -0.7346
vn -0.7454 -0.0822 -0.6615
vn -0.4572 -0.0367 -0.8886
vn -0.7537 -0.0777 -0.6527
vn -0.5976 -0.0618 -0.7994
vn -0.6783 0.0159 -0.7346
vn -0.9505 0.0498 -0.3068
vn -0.9082 -0.0851 -0.4097
vn -0.9304 -0.1307 -0.3425
vn -0.9083 -0.0850 -0.4097
vn -0.7854 -0.1164 -0.6080
vn -0.9304 -0.1306 -0.3426
vn -0.9505 0.0497 -0.3068
vn -0.6020 -0.2206 -0.7674
vn -0.8725 -0.3150 -0.3736
vn -0.9304 -0.1306 -0.3425
vn -0.8724 -0.3150 -0.3736
vn -0.8394 -0.3930 -0.3753
vn -0.8395 -0.3930 -0.3753
vn -0.4525 -0.6173 -0.6435
vn -0.4526 -0.6173 -0.6436
vn -0.6931 0.6376 -0.3362
vn -0.6931 0.6377 -0.3362
vn 0.0242 0.9421 -0.3343
vn -0.4520 0.3717 -0.8109
vn 0.1281 0.5348 -0.8352
vn -0.4520 0.3716 -0.8109
vn 0.1280 0.5348 -0.8352
vn 0.1766 -0.1053 -0.9786
vn -0.1122 -0.7448 -0.6578
vn -0.0592 -0.5776 -0.8141
vn 0.0353 -0.3479 -0.9369
vn -0.4572 -0.0368 -0.8886
vn -0.3078 -0.9334 -0.1844
vn -0.8395 -0.3930 -0.3754
vn -0.4526 -0.6173 -0.6435
vn -0.3078 -0.9334 -0.1845
vn -0.8394 -0.3930 -0.3754
vn 0.0390 -0.9765 -0.2121
vn 0.7354 0.5956 -0.3233
vn 0.7665 0.6423 -0.0000
vn 0.7295 0.2730 -0.6272
vn 0.1766 -0.1054 -0.9786
vn 0.7553 -0.1249 -0.6434
vn 0.5771 -0.1286 -0.8065
vn 0.2544 -0.1872 -0.9488
vn 0.1765 -0.1054 -0.9786
vn 0.2312 -0.2063 -0.9508
vn -0.2026 -0.3601 -0.9106
vn 0.2311 -0.2063 -0.9508
vn -0.3527 -0.5758 -0.7376
vn -0.0591 -0.5776 -0.8142
vn -0.5335 -0.8458 -0.0001
vn -0.4388 -0.8277 -0.3498
vn -0.1121 -0.7448 -0.6578
vn 0.6519 0.2938 -0.6991
vn 0.5770 -0.1286 -0.8065
vn -0.7276 -0.1784 -0.6624
vn -0.4389 -0.8277 -0.3498
vn -0.5888 -0.1313 -0.7975
vn -0.2027 -0.3600 -0.9106
vn -0.2290 0.0009 -0.9734
vn 0.1399 0.1299 -0.9816
vn 0.2554 -0.1868 -0.9486
vn -0.9466 -0.0231 0.3217
vn -0.9465 -0.0231 0.3217
vn -0.8594 -0.0614 0.5075
vn -0.9512 -0.0885 0.2955
vn -0.9505 0.0497 0.3068
vn -0.8724 -0.3150 0.3737
vn -0.9304 -0.1307 0.3426
vn -0.6931 0.6376 0.3362
vn -0.6930 0.6377 0.3363
vn -0.1122 -0.7449 0.6577
vn 0.0390 -0.9765 0.2122
vn -0.5335 -0.8458 0.0001
vn 0.9961 -0.0877 -0.0000
vn 0.6519 0.2938 0.6991
vn -0.4389 -0.8277 0.3497
vn -0.4389 -0.8277 0.3498
vn -0.5334 -0.8458 0.0026
vn -0.5888 -0.1313 0.7976
vn -0.2290 0.0010 0.9734
vn -0.9466 -0.0231 -0.3217
vn -0.9304 -0.1307 -0.3426
vn -0.8724 -0.3150 -0.3737
vn -0.6930 0.6377 -0.3363
vn 0.0242 0.9421 -0.3344
vn -0.1122 -0.7449 -0.6577
vn 0.0390 -0.9765 -0.2122
vn 0.7354 0.5955 -0.3233
vn 0.0242 0.9422 -0.3343
vn -0.1122 -0.7448 -0.6577
vn -0.0592 -0.5777 -0.8141
vn 0.6518 0.2938 -0.6991
vn -0.9312 -0.2412 -0.2734
vn -0.4389 -0.8277 -0.3497
vn -0.4388 -0.8277 -0.3497
vn -0.5888 -0.1313 -0.7976
vn -0.2290 0.0010 -0.9734
vn 0.6518 0.2939 -0.6991
s 0
usemtl Material.001
f 1//1 2//2 3//3
f 4//4 5//5 6//6
f 7//7 6//6 8//8
f 3//9 9//10 1//11
f 10//12 11//13 9//10
f 1//11 11//13 12//14
f 13//15 1//1 12//16
f 13//17 14//18 15//19
f 16//20 13//15 12//14
f 17//21 11//13 10//22
f 18//23 17//24 19//25
f 20//26 19//27 21//28
f 18//29 22//30 23//31
f 20//32 22//30 18//33
f 12//16 23//31 22//30
f 12//16 24//34 16//20
f 25//35 21//28 26//12
f 22//30 20//32 25//35
f 27//36 25//37 26//12
f 28//38 29//39 25//35
f 22//30 29//40 24//34
f 8//41 15//19 30//42
f 31//43 8//41 32//44
f 30//42 32//45 8//41
f 33//46 34//47 30//48
f 24//34 35//49 36//50
f 37//51 24//34 36//52
f 37//51 14//53 16//20
f 27//36 38//54 28//55
f 29//56 28//57 38//58
f 39//59 38//58 40//60
f 29//56 41//61 35//49
f 42//62 31//43 32//63
f 34//64 42//65 32//63
f 33//66 43//67 34//47
f 43//67 33//66 44//68
f 33//66 45//69 44//68
f 46//70 33//71 37//51
f 47//72 37//51 36//50
f 48//73 36//74 35//75
f 49//76 41//61 39//59
f 50//77 35//78 41//61
f 43//67 51//79 42//65
f 52//80 44//68 45//81
f 52//80 53//82 54//83
f 50//77 55//84 48//73
f 50//85 56//86 57//87
f 48//73 58//88 47//89
f 47//90 59//91 46//92
f 46//92 60//93 61//94
f 45//69 60//93 53//95
f 2//2 62//96 3//3
f 63//97 4//4 64//98
f 64//98 7//7 65//99
f 3//9 62//100 9//10
f 10//101 9//10 66//102
f 62//103 66//102 9//10
f 62//96 67//104 68//105
f 69//106 70//107 67//108
f 67//104 71//109 68//110
f 17//21 66//102 72//111
f 17//24 73//112 19//25
f 19//27 74//113 21//28
f 73//114 72//111 75//115
f 74//116 73//114 75//115
f 68//110 72//117 66//102
f 76//118 68//105 71//109
f 21//28 77//119 26//12
f 75//115 77//119 74//120
f 27//36 77//121 78//122
f 78//123 77//119 79//124
f 79//125 75//115 76//118
f 65//126 69//106 64//98
f 65//127 31//43 80//128
f 81//129 80//128 82//130
f 81//131 82//132 83//133
f 84//134 76//118 85//135
f 86//136 76//118 71//109
f 70//137 86//136 71//109
f 87//138 27//36 78//139
f 79//140 87//141 78//142
f 39//59 87//138 88//143
f 88//143 79//140 84//134
f 89//144 31//43 90//145
f 82//132 89//144 91//146
f 83//147 82//132 91//146
f 91//146 92//148 83//147
f 83//133 93//149 94//150
f 83//151 95//152 86//136
f 96//153 86//136 95//154
f 97//155 85//156 96//153
f 49//157 88//143 98//158
f 84//159 98//158 88//143
f 89//144 51//79 91//146
f 52//80 92//148 51//79
f 52//80 99//160 93//161
f 100//162 98//158 97//155
f 98//163 56//86 49//76
f 101//164 97//155 96//165
f 102//166 96//153 95//154
f 103//167 95//154 94//168
f 93//149 103//167 94//150
f 1//1 5//169 2//2
f 4//4 2//2 5//170
f 7//7 4//4 6//6
f 1//171 9//10 11//13
f 13//15 5//169 1//11
f 15//19 6//6 13//15
f 6//6 5//169 13//17
f 16//20 14//18 13//15
f 17//21 23//31 11//13
f 18//23 23//31 17//21
f 20//26 18//23 19//27
f 12//14 11//172 23//173
f 12//16 22//30 24//34
f 25//174 20//175 21//28
f 27//36 28//38 25//37
f 22//30 25//35 29//56
f 8//176 6//6 15//19
f 31//43 7//7 8//177
f 30//42 34//64 32//44
f 15//19 14//53 30//42
f 14//53 33//66 30//42
f 24//34 29//56 35//178
f 37//51 16//20 24//34
f 37//51 33//66 14//53
f 27//36 40//60 38//54
f 39//59 41//61 38//54
f 29//56 38//54 41//179
f 42//65 90//145 31//43
f 34//47 43//67 42//65
f 33//46 61//94 45//81
f 46//92 61//94 33//66
f 47//72 46//92 37//51
f 48//73 47//72 36//52
f 49//180 50//77 41//61
f 50//77 48//73 35//78
f 44//68 51//181 43//67
f 51//79 90//145 42//65
f 52//80 51//79 44//68
f 52//80 45//69 53//182
f 50//183 57//87 55//84
f 50//184 49//185 56//86
f 48//73 55//84 58//186
f 47//72 58//88 59//91
f 46//92 59//187 60//93
f 45//81 61//94 60//93
f 2//2 63//188 62//96
f 63//97 2//2 4//4
f 64//98 4//4 7//7
f 62//100 68//110 66//102
f 62//100 63//188 67//104
f 63//188 64//98 67//108
f 64//98 69//106 67//104
f 67//104 70//107 71//109
f 17//21 10//22 66//102
f 17//21 72//111 73//112
f 19//27 73//112 74//113
f 68//105 75//115 72//111
f 76//118 75//115 68//105
f 21//28 74//189 77//190
f 27//36 26//12 77//121
f 79//140 77//119 75//115
f 65//127 81//129 69//106
f 65//191 7//7 31//43
f 81//129 65//127 80//192
f 83//147 70//137 81//129
f 70//137 69//106 81//129
f 84//193 79//140 76//118
f 86//136 85//156 76//118
f 70//137 83//147 86//136
f 87//138 40//60 27//36
f 39//59 40//60 87//141
f 88//194 87//138 79//140
f 89//195 80//196 31//43
f 82//130 80//196 89//144
f 83//147 92//148 93//161
f 83//147 94//150 95//154
f 96//153 85//135 86//136
f 97//155 84//197 85//198
f 49//76 39//59 88//143
f 84//159 97//155 98//158
f 90//145 51//79 89//144
f 51//181 92//148 91//146
f 52//80 93//149 92//148
f 52//80 54//83 99//199
f 100//162 104//200 98//201
f 98//202 104//200 56//86
f 101//203 100//162 97//155
f 102//166 101//164 96//153
f 103//167 102//204 95//154
f 93//161 99//205 103//167
