# Blender 4.0.2
# www.blender.org
mtllib mesh.mtl
o obj1
v -0.218001 2.695690 -0.758487
v 0.247223 3.483968 -0.935739
v -0.218001 2.695690 -0.935739
v 0.175841 3.766565 -0.935739
v 0.247223 3.483968 -0.758487
v 0.175841 3.766565 -0.570307
v 0.557113 4.796582 -0.935739
v 0.557113 4.750206 -0.435629
v -0.082299 2.453587 -0.935739
v 0.156842 2.381633 -0.935739
v 0.121189 2.393015 -0.781992
v 0.277148 2.572067 -0.574264
v 0.413335 3.346081 -0.600233
v 0.937613 3.271616 0.278737
v 0.628424 3.656253 0.061035
v 0.736616 2.688156 0.128651
v 0.041042 2.175698 -0.935739
v 0.128109 2.043643 -0.721460
v 0.128109 2.043643 -0.935739
v 0.048947 1.898039 -0.749324
v 0.048947 1.898039 -0.935739
v 0.387039 1.939702 -0.429114
v 0.027727 2.230242 -0.729741
v 0.573724 2.028351 -0.134094
v 0.204692 1.719965 -0.766204
v 0.204692 1.719965 -0.935739
v 0.169567 1.306466 -0.935739
v 0.169567 1.306466 -0.761865
v 0.416178 1.282576 -0.563987
v 0.944152 4.451414 0.185634
v 1.914599 5.297884 -0.935739
v 1.914599 5.233765 -0.249640
v 2.027070 3.258178 0.415045
v 2.049799 4.858455 0.319859
v 0.746752 1.316809 -0.403813
v 1.236534 1.688962 -0.068390
v 1.493465 2.170730 0.215768
v 0.343709 1.196862 -0.801012
v 0.634682 1.169412 -0.935739
v 0.343709 1.196862 -0.935739
v 0.640697 1.183619 -0.750920
v 3.323969 4.584980 -0.547546
v 3.317317 4.288445 -0.237741
v 3.432387 3.300843 -0.237741
v 3.029537 2.570732 -0.237741
v 1.895343 2.059424 -0.009776
v 1.751613 1.740297 -0.108318
v 1.434006 1.399318 -0.446028
v 1.301622 1.310813 -0.935739
v 1.301622 1.315027 -0.642093
v 3.672687 3.333187 -0.935739
v 3.325791 2.394128 -0.935739
v 3.410933 1.522504 -0.155622
v 3.742534 1.339257 -0.935739
v 1.753250 0.235732 -0.409877
v 1.630507 0.052174 -0.935739
v 1.636727 0.052174 -0.615081
v 2.107348 0.561807 -0.035562
v 2.273589 1.009579 0.076256
v 2.845206 1.406060 -0.065778
v 2.462729 2.460931 -0.152050
v -0.218001 2.695690 -1.112990
v 0.247223 3.483968 -1.112990
v 0.175841 3.766565 -1.301170
v 0.557113 4.750206 -1.435848
v 0.121189 2.393015 -1.089486
v 0.413335 3.346081 -1.271244
v 0.277148 2.572067 -1.297213
v 0.628424 3.656253 -1.932513
v 0.937613 3.271616 -2.150214
v 0.736616 2.688156 -2.000128
v 0.027727 2.230242 -1.141737
v 0.128109 2.043643 -1.150017
v 0.048947 1.898039 -1.122154
v 0.387039 1.939702 -1.442364
v 0.573724 2.028351 -1.737383
v 0.204692 1.719965 -1.105273
v 0.169567 1.306466 -1.109612
v 0.416178 1.282576 -1.307490
v 1.914599 5.233765 -1.621838
v 0.944152 4.451414 -2.057112
v 2.049799 4.858455 -2.191337
v 2.027070 3.258178 -2.286522
v 0.746752 1.316809 -1.467664
v 1.236534 1.688962 -1.803087
v 1.493465 2.170730 -2.087246
v 0.343709 1.196862 -1.070465
v 0.640697 1.183619 -1.120558
v 3.323969 4.584980 -1.323932
v 3.383203 4.654444 -0.935739
v 3.317317 4.288445 -1.633736
v 3.432387 3.300843 -1.633736
v 3.029537 2.570732 -1.633736
v 2.462729 2.460931 -1.719428
v 1.895343 2.059424 -1.861701
v 1.751613 1.740297 -1.763159
v 1.434006 1.399318 -1.425449
v 1.301622 1.315027 -1.229384
v 3.410933 1.522504 -1.715856
v 1.753250 0.235732 -1.461601
v 2.107348 0.561807 -1.835915
v 2.273589 1.009579 -1.947733
v 2.845206 1.406060 -1.805700
v 1.636727 0.052174 -1.256397
vn -0.8595 -0.0615 0.5075
vn -0.9898 0.1424 -0.0000
vn -0.9999 0.0112 -0.0000
vn -0.9986 0.0535 -0.0000
vn -0.9465 -0.0231 0.3218
vn -0.9500 -0.0323 0.3105
vn -0.6918 0.7221 -0.0000
vn -0.6931 0.6377 0.3363
vn -0.9999 0.0111 -0.0000
vn -0.6301 -0.7765 -0.0000
vn -0.8595 -0.0614 0.5075
vn -0.9502 -0.3117 -0.0000
vn -0.9507 -0.0882 0.2973
vn -0.6783 0.0159 0.7346
vn -0.7537 -0.0777 0.6526
vn -0.6783 0.0160 0.7346
vn -0.7537 -0.0777 0.6527
vn -0.4572 -0.0367 0.8886
vn -0.7454 -0.0822 0.6615
vn -0.5976 -0.0618 0.7994
vn -0.9942 -0.1078 -0.0000
vn -0.9502 -0.3116 -0.0000
vn -0.9082 -0.0851 0.4097
vn -0.9942 -0.1079 0.0002
vn -0.9991 -0.0424 -0.0000
vn -0.9304 -0.1307 0.3425
vn -0.9991 -0.0425 -0.0000
vn -0.9939 -0.1101 -0.0000
vn -0.9083 -0.0850 0.4097
vn -0.7854 -0.1164 0.6080
vn -0.9505 0.0498 0.3068
vn -0.9304 -0.1306 0.3426
vn -0.9082 -0.0850 0.4097
vn -0.6783 0.0160 0.7347
vn -0.6020 -0.2206 0.7674
vn -0.8725 -0.3150 0.3736
vn -0.8951 -0.4459 -0.0000
vn -0.8724 -0.3150 0.3736
vn -0.8394 -0.3930 0.3753
vn -0.4525 -0.6173 0.6435
vn -0.4526 -0.6173 0.6436
vn -0.6931 0.6377 0.3362
vn -0.4520 0.3717 0.8109
vn 0.0432 0.9991 -0.0000
vn 0.0242 0.9421 0.3343
vn 0.0242 0.9421 0.3344
vn 0.1766 -0.1053 0.9786
vn 0.1280 0.5348 0.8352
vn -0.4520 0.3716 0.8109
vn -0.1122 -0.7448 0.6578
vn -0.0592 -0.5776 0.8141
vn 0.0353 -0.3479 0.9369
vn -0.0591 -0.5776 0.8141
vn -0.4572 -0.0368 0.8886
vn -0.3078 -0.9334 0.1844
vn -0.8395 -0.3930 0.3754
vn -0.4526 -0.6173 0.6435
vn -0.8394 -0.3930 0.3754
vn -0.3078 -0.9334 0.1845
vn 0.0673 -0.9977 -0.0000
vn -0.3221 -0.9467 -0.0000
vn 0.0390 -0.9765 0.2121
vn 0.7354 0.5955 0.3233
vn 0.0242 0.9422 0.3343
vn 0.1281 0.5348 0.8352
vn 0.7354 0.5956 0.3233
vn 0.1766 -0.1054 0.9786
vn 0.7295 0.2730 0.6272
vn 0.7553 -0.1249 0.6434
vn 0.5770 -0.1286 0.8065
vn 0.2312 -0.2063 0.9508
vn 0.1765 -0.1054 0.9786
vn -0.2026 -0.3601 0.9106
vn -0.3527 -0.5758 0.7376
vn -0.0592 -0.5777 0.8141
vn -0.1122 -0.7448 0.6577
vn -0.5335 -0.8458 -0.0000
vn -0.4388 -0.8277 0.3498
vn -0.1121 -0.7448 0.6578
vn 0.9962 -0.0876 -0.0000
vn 0.9995 0.0313 -0.0000
vn 0.5771 -0.1286 0.8065
vn 0.6518 0.2938 0.6991
vn 0.9301 0.3674 -0.0000
vn -0.7276 -0.1784 0.6624
vn -0.4388 -0.8277 0.3497
vn -0.9668 -0.2556 -0.0000
vn -0.9312 -0.2412 0.2734
vn -0.5888 -0.1313 0.7975
vn -0.2027 -0.3601 0.9107
vn -0.2024 -0.3599 0.9108
vn -0.2290 0.0009 0.9734
vn 0.2311 -0.2063 0.9508
vn 0.1399 0.1299 0.9816
vn 0.2544 -0.1872 0.9488
vn 0.6518 0.2939 0.6991
vn -0.8595 -0.0615 -0.5075
vn -0.9465 -0.0231 -0.3218
vn -0.9500 -0.0323 -0.3105
vn -0.6931 0.6377 -0.3363
vn -0.8595 -0.0614 -0.5075
vn -0.9502 -0.3116 -0.0023
vn -0.9507 -0.0882 -0.2973
vn -0.8594 -0.0614 -0.5075
vn -0.7537 -0.0777 -0.6526
vn -0.6783 0.0160 -0.7346
vn -0.7454 -0.0822 -0.6615
vn -0.4572 -0.0367 -0.8886
vn -0.7537 -0.0777 -0.6527
vn -0.5976 -0.0618 -0.7994
vn -0.6783 0.0159 -0.7346
vn -0.9505 0.0498 -0.3068
vn -0.9942 -0.1079 -0.0000
vn -0.9082 -0.0851 -0.4097
vn -0.9304 -0.1307 -0.3425
vn -0.9083 -0.0850 -0.4097
vn -0.7854 -0.1164 -0.6080
vn -0.9304 -0.1306 -0.3426
vn -0.9082 -0.0850 -0.4097
vn -0.9505 0.0497 -0.3068
vn -0.6020 -0.2206 -0.7674
vn -0.8725 -0.3150 -0.3736
vn -0.8724 -0.3150 -0.3736
vn -0.8394 -0.3930 -0.3753
vn -0.4525 -0.6173 -0.6435
vn -0.4526 -0.6173 -0.6436
vn -0.6931 0.6376 -0.3362
vn -0.6931 0.6377 -0.3362
vn 0.0242 0.9421 -0.3343
vn -0.4520 0.3717 -0.8109
vn 0.1281 0.5348 -0.8352
vn -0.4520 0.3716 -0.8109
vn 0.1280 0.5348 -0.8352
vn 0.1766 -0.1053 -0.9786
vn -0.1122 -0.7448 -0.6578
vn -0.0592 -0.5776 -0.8141
vn 0.0353 -0.3479 -0.9369
vn -0.4572 -0.0368 -0.8886
vn -0.3078 -0.9334 -0.1844
vn -0.8395 -0.3930 -0.3754
vn -0.4526 -0.6173 -0.6435
vn -0.3078 -0.9334 -0.1845
vn -0.8394 -0.3930 -0.3754
vn 0.0390 -0.9765 -0.2121
vn 0.7354 0.5956 -0.3233
vn 0.7665 0.6423 -0.0000
vn 0.7295 0.2730 -0.6272
vn 0.1766 -0.1054 -0.9786
vn 0.7553 -0.1249 -0.6434
vn 0.5771 -0.1286 -0.8065
vn 0.2544 -0.1872 -0.9488
vn 0.1765 -0.1054 -0.9786
vn 0.2312 -0.2063 -0.9508
vn -0.2026 -0.3601 -0.9106
vn 0.2311 -0.2063 -0.9508
vn -0.3527 -0.5758 -0.7376
vn -0.0591 -0.5776 -0.8141
vn -0.5335 -0.8458 -0.0001
vn -0.4388 -0.8277 -0.3498
vn -0.1121 -0.7448 -0.6578
vn 0.6519 0.2938 -0.6991
vn 0.5770 -0.1286 -0.8065
vn -0.7276 -0.1784 -0.6624
vn -0.4389 -0.8277 -0.3498
vn -0.5888 -0.1313 -0.7975
vn -0.2027 -0.3601 -0.9107
vn -0.2290 0.0009 -0.9734
vn 0.1399 0.1299 -0.9816
vn 0.2554 -0.1868 -0.9486
vn -0.9466 -0.0231 0.3217
vn -0.9465 -0.0231 0.3217
vn -0.8594 -0.0614 0.5075
vn -0.9083 -0.0851 0.4097
vn -0.9512 -0.0885 0.2955
vn -0.9505 0.0497 0.3068
vn -0.8724 -0.3150 0.3737
vn -0.9304 -0.1307 0.3426
vn -0.6931 0.6376 0.3362
vn -0.6930 0.6377 0.3363
vn -0.1122 -0.7449 0.6577
vn 0.0390 -0.9765 0.2122
vn -0.5335 -0.8458 0.0001
vn 0.9962 -0.0877 -0.0000
vn 0.6519 0.2938 0.6991
vn -0.4389 -0.8277 0.3497
vn -0.4389 -0.8277 0.3498
vn -0.5334 -0.8458 0.0026
vn -0.5888 -0.1313 0.7976
vn -0.2290 0.0010 0.9734
vn -0.9466 -0.0231 -0.3217
vn -0.9465 -0.0231 -0.3217
vn -0.9083 -0.0851 -0.4097
vn -0.6783 0.0160 -0.7347
vn -0.9304 -0.1307 -0.3426
vn -0.8724 -0.3150 -0.3737
vn -0.6930 0.6377 -0.3363
vn 0.0242 0.9421 -0.3344
vn -0.1122 -0.7449 -0.6577
vn 0.0390 -0.9765 -0.2122
vn 0.7354 0.5955 -0.3233
vn 0.0242 0.9422 -0.3343
vn -0.1122 -0.7448 -0.6577
vn -0.0592 -0.5777 -0.8141
vn 0.6518 0.2938 -0.6991
vn -0.9312 -0.2412 -0.2734
vn -0.4389 -0.8277 -0.3497
vn -0.4388 -0.8277 -0.3497
vn -0.5888 -0.1313 -0.7976
vn -0.2290 0.0010 -0.9734
vn 0.6518 0.2939 -0.6991
s 0
usemtl Default
f 1//1 2//2 3//3
f 4//4 5//5 6//6
f 7//7 6//6 8//8
f 3//9 9//10 1//11
f 10//12 11//13 9//10
f 1//11 11//13 12//14
f 13//15 1//11 12//16
f 13//17 14//18 15//19
f 16//20 13//15 12//14
f 17//21 11//13 10//22
f 18//23 17//24 19//25
f 20//26 19//27 21//28
f 18//29 22//30 23//31
f 20//32 22//30 18//33
f 12//34 23//31 22//30
f 12//16 24//35 16//20
f 25//36 21//28 26//12
f 22//30 20//32 25//36
f 27//37 25//38 26//12
f 28//39 29//40 25//36
f 22//30 29//41 24//35
f 8//42 15//19 30//43
f 31//44 8//42 32//45
f 30//43 32//46 8//42
f 33//47 34//48 30//49
f 24//35 35//50 36//51
f 37//52 24//35 36//53
f 37//52 14//54 16//20
f 27//37 38//55 28//56
f 29//57 28//58 38//59
f 39//60 38//59 40//61
f 29//57 41//62 35//50
f 42//63 31//44 32//64
f 34//65 42//66 32//64
f 33//67 43//68 34//48
f 43//68 33//67 44//69
f 33//67 45//70 44//69
f 46//71 33//72 37//52
f 47//73 37//52 36//51
f 48//74 36//75 35//76
f 49//77 41//62 39//60
f 50//78 35//79 41//62
f 43//68 51//80 42//66
f 52//81 44//69 45//82
f 52//81 53//83 54//84
f 50//78 55//85 48//74
f 50//86 56//87 57//88
f 48//74 58//89 47//90
f 47//91 59//92 46//93
f 46//93 60//94 61//95
f 45//70 60//94 53//96
f 2//2 62//97 3//3
f 63//98 4//4 64//99
f 64//99 7//7 65//100
f 3//9 62//101 9//10
f 10//102 9//10 66//103
f 62//104 66//103 9//10
f 62//101 67//105 68//106
f 69//107 70//108 67//109
f 67//105 71//110 68//111
f 17//21 66//103 72//112
f 17//113 73//114 19//25
f 19//27 74//115 21//28
f 73//116 72//112 75//117
f 74//118 73//119 75//117
f 68//111 72//120 66//103
f 76//121 68//106 71//110
f 21//28 77//122 26//12
f 75//117 77//122 74//118
f 27//37 77//123 78//124
f 78//124 77//122 79//125
f 79//126 75//117 76//121
f 65//127 69//107 64//99
f 65//128 31//44 80//129
f 81//130 80//129 82//131
f 81//132 82//133 83//134
f 84//135 76//121 85//136
f 86//137 76//121 71//110
f 70//138 86//137 71//110
f 87//139 27//37 78//140
f 79//141 87//142 78//143
f 39//60 87//139 88//144
f 88//144 79//141 84//135
f 89//145 31//44 90//146
f 82//133 89//145 91//147
f 83//148 82//133 91//147
f 91//147 92//149 83//148
f 83//134 93//150 94//151
f 83//152 95//153 86//137
f 96//154 86//137 95//155
f 97//156 85//157 96//154
f 49//158 88//144 98//159
f 84//160 98//159 88//144
f 89//145 51//80 91//147
f 52//81 92//149 51//80
f 52//81 99//161 93//162
f 100//163 98//159 97//156
f 98//164 56//87 49//77
f 101//165 97//156 96//166
f 102//167 96//154 95//155
f 103//168 95//155 94//169
f 93//150 103//168 94//151
f 1//1 5//170 2//2
f 4//4 2//2 5//171
f 7//7 4//4 6//6
f 1//172 9//10 11//13
f 13//15 5//170 1//11
f 15//19 6//6 13//15
f 6//6 5//170 13//17
f 16//20 14//18 13//15
f 17//21 23//31 11//13
f 18//23 23//31 17//21
f 20//26 18//173 19//27
f 12//14 11//174 23//175
f 12//16 22//30 24//35
f 25//176 20//177 21//28
f 27//37 28//39 25//38
f 22//30 25//36 29//57
f 8//178 6//6 15//19
f 31//44 7//7 8//179
f 30//43 34//65 32//45
f 15//19 14//54 30//43
f 14//54 33//67 30//43
f 24//35 29//57 35//180
f 37//52 16//20 24//35
f 37//52 33//67 14//54
f 27//37 40//61 38//55
f 39//60 41//62 38//55
f 29//57 38//55 41//181
f 42//66 90//146 31//44
f 34//48 43//68 42//66
f 33//47 61//95 45//82
f 46//93 61//95 33//67
f 47//73 46//93 37//52
f 48//74 47//73 36//53
f 49//182 50//78 41//62
f 50//78 48//74 35//79
f 44//69 51//183 43//68
f 51//80 90//146 42//66
f 52//81 51//80 44//69
f 52//81 45//70 53//184
f 50//185 57//88 55//85
f 50//186 49//187 56//87
f 48//74 55//85 58//188
f 47//73 58//89 59//92
f 46//93 59//189 60//94
f 45//82 61//95 60//94
f 2//2 63//190 62//97
f 63//191 2//2 4//4
f 64//99 4//4 7//7
f 62//101 68//111 66//103
f 62//101 63//190 67//105
f 63//190 64//99 67//109
f 64//99 69//107 67//105
f 67//105 70//108 71//110
f 17//21 10//22 66//103
f 17//21 72//112 73//114
f 19//27 73//192 74//115
f 68//193 75//117 72//112
f 76//121 75//117 68//106
f 21//28 74//194 77//195
f 27//37 26//12 77//123
f 79//141 77//122 75//117
f 65//128 81//130 69//107
f 65//196 7//7 31//44
f 81//130 65//128 80//197
f 83//148 70//138 81//130
f 70//138 69//107 81//130
f 84//198 79//141 76//121
f 86//137 85//157 76//121
f 70//138 83//148 86//137
f 87//139 40//61 27//37
f 39//60 40//61 87//142
f 88//199 87//139 79//141
f 89//200 80//201 31//44
f 82//131 80//201 89//145
f 83//148 92//149 93//162
f 83//148 94//151 95//155
f 96//154 85//136 86//137
f 97//156 84//202 85//203
f 49//77 39//60 88//144
f 84//160 97//156 98//159
f 90//146 51//80 89//145
f 51//183 92//149 91//147
f 52//81 93//150 92//149
f 52//81 54//84 99//204
f 100//163 104//205 98//206
f 98//207 104//205 56//87
f 101//208 100//163 97//156
f 102//167 101//165 96//154
f 103//168 102//209 95//155
f 93//162 99//210 103//168
